<svg xmlns="http://www.w3.org/2000/svg" viewBox="0 0 24 24" id="deliveroo"><path d="M17.447 24a.69.69 0 0 1-.156-.017L3.035 20.957a.75.75 0 0 1-.577-.575l-1.44-6.667a.748.748 0 0 1 .579-.891l7.363-1.556-1.614-7.627a.752.752 0 0 1 .58-.89l5.627-1.179c.401-.083.8.173.887.578l.799 3.746L15.79.67a.753.753 0 0 1 .824-.667l5.713.598a.752.752 0 0 1 .668.825l-1.544 14.636a.765.765 0 0 1-.062.228l-3.26 7.267a.745.745 0 0 1-.682.443zM3.821 19.591l13.189 2.8 2.963-6.604 1.453-13.771-4.221-.441-.967 9.172a.751.751 0 0 1-.707.67.728.728 0 0 1-.773-.593L13.13 3.195l-4.16.871 1.611 7.626a.752.752 0 0 1-.579.888l-7.359 1.555 1.178 5.456z"></path><path d="M11.5 16.25c-.965 0-1.75-.785-1.75-1.75s.785-1.75 1.75-1.75 1.75.785 1.75 1.75-.785 1.75-1.75 1.75zm0-2a.25.25 0 0 0-.25.25c0 .275.5.275.5 0a.25.25 0 0 0-.25-.25zm4 4c-.965 0-1.75-.785-1.75-1.75s.785-1.75 1.75-1.75 1.75.785 1.75 1.75-.785 1.75-1.75 1.75zm0-2a.25.25 0 0 0-.25.25c0 .275.5.275.5 0a.25.25 0 0 0-.25-.25z"></path></svg>